<?xml version="1.0" encoding="UTF-8"?>
<svg width="19px" height="18px" viewBox="0 0 19 18" version="1.1" xmlns="http://www.w3.org/2000/svg" xmlns:xlink="http://www.w3.org/1999/xlink">
    <!-- Generator: Sketch 41.2 (35397) - http://www.bohemiancoding.com/sketch -->
    <title>ico/addpepole</title>
    <desc>Created with Sketch.</desc>
    <defs></defs>
    <g id="Symbols" stroke="none" stroke-width="1" fill="none" fill-rule="evenodd">
        <g id="ico/addpepole" fill="#5A616A">
            <path d="M9.5,9.22058824 C11.8147228,9.22058824 13.6911765,7.34413461 13.6911765,5.02941176 C13.6911765,2.71468892 11.8147228,0.838235294 9.5,0.838235294 C7.18527715,0.838235294 5.30882353,2.71468892 5.30882353,5.02941176 C5.30882353,7.34413461 7.18527715,9.22058824 9.5,9.22058824 Z M15.0882353,14.5294118 L12.2941176,14.5294118 L12.2941176,15.0882353 L15.0882353,15.0882353 L15.0882353,17.8823529 L15.6470588,17.8823529 L15.6470588,15.0882353 L18.4411765,15.0882353 L18.4411765,14.5294118 L15.6470588,14.5294118 L15.6470588,11.7352941 L15.0882353,11.7352941 L15.0882353,14.5294118 Z M9.5,8.66176471 C7.49390686,8.66176471 5.86764706,7.0355049 5.86764706,5.02941176 C5.86764706,3.02331863 7.49390686,1.39705882 9.5,1.39705882 C11.5060931,1.39705882 13.1323529,3.02331863 13.1323529,5.02941176 C13.1323529,7.0355049 11.5060931,8.66176471 9.5,8.66176471 Z M13.5863708,9.75025665 C12.3402049,9.03926655 10.9454703,8.66176471 9.5,8.66176471 C4.71206468,8.66176471 0.838235294,12.7938494 0.838235294,17.8823529 L1.39705882,17.8823529 C1.39705882,13.0947057 5.02904393,9.22058824 9.5,9.22058824 C10.8473477,9.22058824 12.1467995,9.57230064 13.3094412,10.2356366 L13.5863708,9.75025665 Z" id="Combined-Shape"></path>
        </g>
    </g>
</svg>