<svg xmlns="http://www.w3.org/2000/svg" width="18" height="18" viewBox="0 0 18 18">
  <path fill="#32C7AC" fill-rule="evenodd" d="M5.31498968,16.7346877 C5.50627037,16.7398581 5.66034619,16.7402451 5.98628386,16.7383193 C6.11830291,16.7375359 6.17526679,16.737279 6.24483452,16.737279 L15.2429281,16.737279 C15.5190705,16.737279 15.7429281,16.5134214 15.7429281,16.237279 C15.7429281,15.9611366 15.5190705,15.737279 15.2429281,15.737279 L6.24483452,15.737279 C6.17259955,15.737279 6.11327363,15.7375466 5.98037552,15.7383368 C5.66529547,15.7401984 5.5187559,15.7398303 5.3420102,15.7350528 C4.04641322,15.7000323 3.53531993,15.4190208 3.52265127,14.5557415 C3.50649637,13.4549008 4.41327564,13.0625418 6.21585567,13.0625418 L15.7528751,13.0625418 L15.7528751,1.5 L4.02355124,1.5 C3.19727472,1.5 2.52239592,2.17214046 2.52092427,2.99365203 L2.50000082,14.6736167 C2.49987432,14.7442329 2.51439307,14.8114561 2.54069298,14.8724121 C2.68467235,16.2055683 3.67139031,16.6902605 5.31498968,16.7346877 Z M3.52092266,2.99544342 C3.5214053,2.72602571 3.74835185,2.5 4.02355124,2.5 L14.7528751,2.5 L14.7528751,12.0625418 L6.21585567,12.0625418 C5.06946478,12.0625418 4.14234819,12.2145963 3.50371529,12.6010079 L3.52092266,2.99544342 Z M5.44736556,15.0526316 L15.0877625,15.0526868 C15.3639049,15.0526884 15.5877638,14.8288321 15.5877653,14.5526897 C15.5877669,14.2765473 15.3639106,14.0526884 15.0877682,14.0526868 L5.44737129,14.0526316 C5.17122891,14.05263 4.94737,14.2764863 4.94736842,14.5526287 C4.94736684,14.8287711 5.17122318,15.05263 5.44736556,15.0526316 Z M8.58823756,5.2622772 L12.9480109,5.2622772 C13.2241533,5.2622772 13.4480109,5.03841958 13.4480109,4.7622772 C13.4480109,4.48613483 13.2241533,4.2622772 12.9480109,4.2622772 L8.58823756,4.2622772 C8.31209519,4.2622772 8.08823756,4.48613483 8.08823756,4.7622772 C8.08823756,5.03841958 8.31209519,5.2622772 8.58823756,5.2622772 Z M8.58823756,7.70964562 L12.9480109,7.70964562 C13.2241533,7.70964562 13.4480109,7.485788 13.4480109,7.20964562 C13.4480109,6.93350325 13.2241533,6.70964562 12.9480109,6.70964562 L8.58823756,6.70964562 C8.31209519,6.70964562 8.08823756,6.93350325 8.08823756,7.20964562 C8.08823756,7.485788 8.31209519,7.70964562 8.58823756,7.70964562 Z"/>
</svg>
