<svg xmlns="http://www.w3.org/2000/svg" width="16" height="15" viewBox="0 0 16 15">
  <g fill="#8C73DA" fill-rule="evenodd">
    <path d="M1.5,2.99942248 L1.5,12.0005775 C1.5,13.1039454 2.39575268,14 3.49942248,14 L12.5005775,14 C13.6039454,14 14.5,13.1042473 14.5,12.0005775 L14.5,2.99942248 C14.5,1.89605459 13.6042473,1 12.5005775,1 L3.49942248,1 C2.39605459,1 1.5,1.89575268 1.5,2.99942248 Z M0.5,2.99942248 C0.5,1.34288718 1.84435073,0 3.49942248,0 L12.5005775,0 C14.1571128,0 15.5,1.34435073 15.5,2.99942248 L15.5,12.0005775 C15.5,13.6571128 14.1556493,15 12.5005775,15 L3.49942248,15 C1.84288718,15 0.5,13.6556493 0.5,12.0005775 L0.5,2.99942248 Z M0.5,7.16996749 C0.5,5.51129025 1.85014498,4.16666667 3.50330083,4.16666667 L8.33003251,4.16666667 C9.98870975,4.16666667 11.3333333,5.51681165 11.3333333,7.16996749 L11.3333333,11.9966992 C11.3333333,13.6553764 9.98318835,15 8.33003251,15 L3.50330083,15 C1.84462358,15 0.5,13.649855 0.5,11.9966992 L0.5,7.16996749 Z M1.5,7.16996749 L1.5,11.9966992 C1.5,13.0997611 2.39909714,14 3.50330083,14 L8.33003251,14 C9.43309443,14 10.3333333,13.1009029 10.3333333,11.9966992 L10.3333333,7.16996749 C10.3333333,6.06690557 9.43423619,5.16666667 8.33003251,5.16666667 L3.50330083,5.16666667 C2.4002389,5.16666667 1.5,6.06576381 1.5,7.16996749 Z"/>
    <path d="M0.5,10.5073223 C0.5,8.84642403 1.8408497,7.5 3.50732225,7.5 L4.99267775,7.5 C6.65357597,7.5 8,8.8408497 8,10.5073223 L8,11.9926777 C8,13.653576 6.6591503,15 4.99267775,15 L3.50732225,15 C1.84642403,15 0.5,13.6591503 0.5,11.9926777 L0.5,10.5073223 Z M1.5,10.5073223 L1.5,11.9926777 C1.5,13.1046533 2.3964945,14 3.50732225,14 L4.99267775,14 C6.10465333,14 7,13.1035055 7,11.9926777 L7,10.5073223 C7,9.39534667 6.1035055,8.5 4.99267775,8.5 L3.50732225,8.5 C2.39534667,8.5 1.5,9.3964945 1.5,10.5073223 Z"/>
  </g>
</svg>
