<svg xmlns="http://www.w3.org/2000/svg" width="18" height="18" viewBox="0 0 18 18">
  <path fill="#70BAFF" fill-rule="evenodd" d="M4.97170967,16.15052 C4.80226157,16.0752783 4.64759688,16.0013822 4.50642905,15.9282484 C3.14535742,15.2231284 2.99822999,14.823735 3.00001098,12.4764413 C3.0000801,12.3848518 3.0000801,12.3848518 3.00010321,12.2910158 C3.00010321,11.2317092 3.29086932,10.7302897 3.92375617,10.4823231 C4.49824697,10.2572363 5.13257744,10.22446 6.9951064,10.2623786 C7.55292124,10.2737349 7.85592451,10.2781609 8.21214748,10.2781609 L8.93429917,10.2781609 C9.29054967,10.2781609 9.59366312,10.2737312 10.1507955,10.2623784 C12.0104535,10.2244836 12.6425213,10.2572189 13.2144754,10.4821039 C13.8440731,10.7296537 14.1334365,11.23094 14.1334365,12.2910158 C14.1334873,12.4118854 14.1334873,12.4118854 14.1336392,12.5289826 C14.1365797,14.7808668 13.998689,15.1746576 12.7548059,15.8580532 C12.5906462,15.9482433 12.4065547,16.0396279 12.2001647,16.133309 L12.6134832,17.0438955 C12.8420837,16.9401329 13.0487745,16.8375299 13.2363242,16.7344892 C14.8842432,15.8291142 15.1370067,15.1072676 15.1336383,12.5276768 C15.1334869,12.4108247 15.1334869,12.4108247 15.1334365,12.2910158 C15.1334365,10.8457624 14.6229269,9.96136765 13.5803938,9.55145701 C12.8303487,9.25654891 12.1516537,9.2213987 10.1304224,9.26258592 C9.57973816,9.27380737 9.28183597,9.27816092 8.93429917,9.27816092 L8.21214748,9.27816092 C7.86463352,9.27816092 7.566831,9.27381087 7.01546082,9.26258573 C4.99200258,9.22139088 4.31101749,9.25657783 3.55895473,9.5512378 C2.51313391,9.96099287 2.00010321,10.8457026 2.00010321,12.2910158 C2.00008027,12.3842318 2.00008027,12.3842318 2.00001126,12.4756826 C1.99797663,15.1572776 2.27006902,15.895902 4.0464311,16.8161684 C4.20609386,16.8988837 4.37874257,16.9813722 4.56587984,17.0644687 L4.97170967,16.15052 Z M8.56676987,8.24597701 C10.5960227,8.24597701 12.2445477,6.62587495 12.2445477,4.62298851 C12.2445477,2.62010206 10.5960227,1 8.56676987,1 C6.537517,1 4.8889921,2.62010206 4.8889921,4.62298851 C4.8889921,6.62587495 6.537517,8.24597701 8.56676987,8.24597701 Z M8.56676987,7.24597701 C7.08594634,7.24597701 5.8889921,6.06965991 5.8889921,4.62298851 C5.8889921,3.1763171 7.08594634,2 8.56676987,2 C10.0475934,2 11.2445477,3.1763171 11.2445477,4.62298851 C11.2445477,6.06965991 10.0475934,7.24597701 8.56676987,7.24597701 Z M6.24486273,12.9709498 C6.06221198,12.7638428 5.74625088,12.7440171 5.53914387,12.9266679 C5.33203687,13.1093186 5.31221116,13.4252797 5.49486191,13.6323867 L7.65733124,16.0844026 L12.0160372,12.4725695 C12.2286648,12.2963761 12.2582005,11.9811744 12.0820071,11.7685468 C11.9058136,11.5559192 11.5906119,11.5263835 11.3779843,11.702577 L7.76593832,14.6956918 L6.24486273,12.9709498 Z"/>
</svg>
