<?xml version="1.0" encoding="UTF-8"?>
<svg width="22px" height="21px" viewBox="0 0 22 21" version="1.1" xmlns="http://www.w3.org/2000/svg" xmlns:xlink="http://www.w3.org/1999/xlink">
    <!-- Generator: Sketch 41.2 (35397) - http://www.bohemiancoding.com/sketch -->
    <title>ico/home</title>
    <desc>Created with Sketch.</desc>
    <defs></defs>
    <g id="Symbols" stroke="none" stroke-width="1" fill="none" fill-rule="evenodd">
        <g id="ico/home" fill="#5A616A">
            <path d="M18.2215739,19.2901464 C18.2215739,19.4357141 18.1049975,19.553098 17.9602844,19.553098 L13.0745163,19.553098 L13.8602306,20.3438814 L13.8602306,14.4134744 C13.8602306,13.9043826 13.4515506,13.4904252 12.9430785,13.4904252 L8.64998779,13.4904252 C8.14303133,13.4904252 7.73283569,13.9049013 7.73283569,14.4134744 L7.73283569,20.3438814 L8.51854997,19.553098 L3.93891477,19.553098 C3.7936657,19.553098 3.67586954,19.4345733 3.67586954,19.2887829 L3.67586954,11.0076433 L2.89015525,11.0076433 L2.89015525,19.2887829 C2.89015525,19.8712839 3.35970088,20.3438814 3.93891477,20.3438814 L8.51854997,20.3438814 L8.51854997,14.4134744 C8.51854997,14.341213 8.57739669,14.2812086 8.64998779,14.2812086 L12.9430785,14.2812086 C13.0169121,14.2812086 13.0745163,14.340426 13.0745163,14.4134744 L13.0745163,20.3438814 L17.9602844,20.3438814 C18.5392768,20.3438814 19.0072882,19.8721082 19.0072882,19.2901464 L19.0072882,10.9391705 L18.2215739,10.9425086 L18.2215739,19.2901464 Z M10.483242,0.994805097 C10.7761197,0.700037852 11.3064819,0.720267914 11.6662669,1.08237405 L20.8827798,10.3583483 L21.9907971,10.3551775 L12.2218508,0.523205737 C11.5642114,-0.138676489 10.5371554,-0.177792778 9.92765812,0.435636785 L0.00920287362,10.4180821 L1.12353912,10.4148932 L10.483242,0.994805097 Z" id="Combined-Shape"></path>
        </g>
    </g>
</svg>