<?xml version="1.0" encoding="UTF-8"?>
<svg width="18px" height="18px" viewBox="0 0 18 18" version="1.1" xmlns="http://www.w3.org/2000/svg" xmlns:xlink="http://www.w3.org/1999/xlink">
    <!-- Generator: Sketch 41.2 (35397) - http://www.bohemiancoding.com/sketch -->
    <title>ico/min</title>
    <desc>Created with Sketch.</desc>
    <defs></defs>
    <g id="Symbols" stroke="none" stroke-width="1" fill="none" fill-rule="evenodd">
        <g id="ico/min" fill="#70BAFF">
            <path d="M9,17.5 C13.6944291,17.5 17.5,13.6944291 17.5,9 C17.5,4.30557095 13.6944291,0.5 9,0.5 C4.30557095,0.5 0.5,4.30557095 0.5,9 C0.5,13.6944291 4.30557095,17.5 9,17.5 Z M9,18 C4.02942857,18 0,13.9705714 0,9 C0,4.02942857 4.02942857,0 9,0 C13.9705714,0 18,4.02942857 18,9 C18,13.9705714 13.9705714,18 9,18 Z M5,10 L14,10 L14,9 L5,9 L5,10 Z" id="Combined-Shape"></path>
        </g>
    </g>
</svg>