<?xml version="1.0" encoding="UTF-8"?>
<svg width="20px" height="20px" viewBox="0 0 20 20" version="1.1" xmlns="http://www.w3.org/2000/svg" xmlns:xlink="http://www.w3.org/1999/xlink">
    <!-- Generator: Sketch 41.2 (35397) - http://www.bohemiancoding.com/sketch -->
    <title>ico/money</title>
    <desc>Created with Sketch.</desc>
    <defs></defs>
    <g id="Symbols" stroke="none" stroke-width="1" fill="none" fill-rule="evenodd">
        <g id="ico/money" fill="#5A616A">
            <path d="M19,10 C19,5.02928475 14.9707153,1 10,1 C5.02928475,1 1,5.02928475 1,10 C1,14.9707153 5.02928475,19 10,19 C14.9707153,19 19,14.9707153 19,10 Z M20,10 C20,15.523 15.523,20 10,20 C4.477,20 0,15.523 0,10 C0,4.477 4.477,0 10,0 C15.523,0 20,4.477 20,10 Z M12.6240234,13.0253906 L12.6240234,12.0957031 L10.7304688,12.0957031 L10.7304688,10.9609375 L12.6240234,10.9609375 L12.6240234,10.03125 L11.0996094,10.03125 L14.2304688,5 L12.8291016,5 L10.1699219,9.38183594 L10.0605469,9.38183594 L7.40136719,5 L6,5 L9.13085938,10.03125 L7.60644531,10.03125 L7.60644531,10.9609375 L9.5,10.9609375 L9.5,12.0957031 L7.60644531,12.0957031 L7.60644531,13.0253906 L9.5,13.0253906 L9.5,14.8642578 L10.7304688,14.8642578 L10.7304688,13.0253906 L12.6240234,13.0253906 Z" id="Combined-Shape"></path>
        </g>
    </g>
</svg>