<?xml version="1.0" encoding="UTF-8"?>
<svg width="22px" height="22px" viewBox="0 0 22 22" version="1.1" xmlns="http://www.w3.org/2000/svg" xmlns:xlink="http://www.w3.org/1999/xlink">
    <!-- Generator: Sketch 41.2 (35397) - http://www.bohemiancoding.com/sketch -->
    <title>ico/phone</title>
    <desc>Created with Sketch.</desc>
    <defs></defs>
    <g id="Symbols" stroke="none" stroke-width="1" fill="none" fill-rule="evenodd">
        <g id="ico/phone" fill="#5C585D">
            <path d="M1.47122309,1.37355629 C1.26933125,1.57448806 1.09449613,1.8954555 0.972260658,2.37738862 C0.837817167,2.90745385 0.822358072,3.91404658 0.915594872,5.21110634 C0.959090369,5.81619208 1.024138,6.46227169 1.10499733,7.12598685 C1.15981663,7.57595844 1.21857828,8.0070409 1.2772954,8.40365667 C1.29779971,8.54215688 1.31680758,8.66629839 1.3338203,8.77414844 C1.34391426,8.83813783 1.3510202,8.88200459 1.35463946,8.90382111 L1.33781164,8.82535814 C1.34175409,8.84029007 1.35322575,8.88027996 1.37294551,8.94364234 C1.40800311,9.05628734 1.45275423,9.18897768 1.50791231,9.34003055 C1.6683859,9.77949461 1.87910018,10.2725195 2.14569436,10.8057118 C2.91227716,12.3388889 3.97042733,13.8751771 5.365176,15.3102041 C5.58567292,15.5370686 5.81335376,15.7599078 6.04833793,15.9784667 C6.55240523,16.4473 7.08606515,16.8803112 7.64576879,17.2788809 C9.08841666,18.3062026 10.6380127,19.0641013 12.1871038,19.5914404 C12.7279272,19.7755466 13.2287061,19.9173848 13.6757588,20.0220941 C13.8300172,20.0582247 13.9658053,20.0870456 14.0814123,20.1092124 C14.1472435,20.121835 14.1895245,20.1291309 14.2065461,20.131762 C14.2990617,20.141748 14.3636783,20.1488105 14.4365148,20.1564424 C14.6457338,20.1783645 14.8778834,20.2003287 15.1261901,20.2208363 C15.7265962,20.2704236 16.3211018,20.3033681 16.8724561,20.3119628 C17.7549903,20.32572 18.4469703,20.2734763 18.8222762,20.1589804 C19.1703792,20.0527834 19.4322395,19.8826977 19.6307056,19.6645978 C19.7460209,19.5378746 19.8329494,19.4022707 19.8944146,19.2691598 C19.9269904,19.1986127 19.9416727,19.1546138 19.9423825,19.1516272 L19.9261104,19.240884 C19.928293,19.2238357 19.9325569,19.189817 19.9386044,19.1404149 C19.9487845,19.057253 19.9601549,18.9618626 19.9724178,18.8558348 C20.0075178,18.5523503 20.042638,18.2252281 20.0753942,17.8873 C20.114817,17.480596 20.1480658,17.0861019 20.1731467,16.7149398 C20.2390429,15.7397688 20.2410717,14.9985405 20.1756566,14.6900954 C20.121903,14.4366367 20.0287576,14.267288 19.91061,14.1507744 C19.8567426,14.0976519 19.8013963,14.0596996 19.7497722,14.03464 C19.706107,14.0192769 19.6618082,14.0049783 19.6188887,13.9871566 C19.5605952,13.962951 19.3904114,13.9326002 19.3266118,13.9351211 L13.4128765,14.1687909 C13.3956666,14.1846535 11.4854466,16.101603 11.4854466,16.101603 C11.1990345,16.389479 10.7498224,16.4366228 10.4098849,16.2144809 C10.3801536,16.1950521 10.3270733,16.159885 10.2539354,16.1106731 C10.1335016,16.0296373 9.99967171,15.9379911 9.85571459,15.8374062 C9.44393088,15.5496867 9.03186496,15.2468579 8.64496329,14.94152 C8.39516789,14.7443846 8.16359092,14.5521476 7.95357463,14.3661582 C7.78304944,14.2151419 7.62765826,14.069051 7.4884725,13.9279579 C7.21736884,13.653139 6.85071578,13.2110197 6.399823,12.6284611 C6.34852229,12.56218 6.2963648,12.4943675 6.24341645,12.4251258 C5.96248065,12.0577398 5.6706707,11.6652399 5.38452308,11.2728892 C5.28445079,11.1356753 5.19218512,11.0082143 5.10983298,10.8937107 C5.08093056,10.8535243 5.05530396,10.8177888 5.03321744,10.7869058 C4.76189231,10.4057573 4.80266305,9.93717861 5.10178144,9.6420253 L7.10313457,7.66720187 C7.10280726,7.64288706 7.23437702,1.67065102 7.23437702,1.67065102 C7.2363208,1.58334217 7.20727001,1.40651137 7.18585165,1.35472106 C7.16323443,1.30003191 7.14634717,1.24314557 7.13546059,1.18497406 C7.08690299,1.11778204 7.01518693,1.0298279 6.90142552,0.937653891 C6.86971393,0.911959907 6.8353488,0.886562788 6.79816336,0.86154461 C6.84895723,0.895718468 6.87865213,0.908131595 6.89490664,0.912709449 C6.87424289,0.906889796 6.83615261,0.899398331 6.78415598,0.892187907 C6.65499193,0.874276602 6.47378224,0.862575726 6.24986924,0.858268496 C5.82339598,0.850064779 5.26654358,0.868664215 4.614282,0.909777926 C4.2205049,0.934598701 3.80259835,0.966941244 3.37167507,1.00500203 C3.00037012,1.03779709 2.64030835,1.07295578 2.3057327,1.10809872 C2.18879746,1.12038129 2.08349759,1.13177336 1.99160165,1.14197756 C1.93690342,1.1480513 1.89912114,1.15234484 1.8800194,1.15456091 C1.85206637,1.15780385 1.82397048,1.15966703 1.79583399,1.16014365 C1.67847514,1.20727106 1.5763054,1.26897368 1.47122309,1.37355629 Z M7.27620754,0.151009971 C7.89055887,0.564342493 7.97722599,1.02744082 7.97722599,1.02744082 C8.05046082,1.20452503 8.09473434,1.50150757 8.09054428,1.68971218 L7.95685502,7.6946129 C7.95265714,7.8831686 7.8397411,8.14346275 7.70463254,8.27678034 L5.70327941,10.2516038 C5.70327941,10.2516038 7.35648988,12.5747365 8.09813106,13.3265411 C9.08151457,14.3234008 10.8783535,15.4975967 10.8783535,15.4975967 L12.7968759,13.5692692 C12.9312543,13.4342041 13.1909041,13.320514 13.3790647,13.3130792 L19.2928,13.0794094 C19.4801796,13.0720055 19.7739909,13.1242867 19.9473016,13.1962516 C19.9473016,13.1962516 20.7755574,13.3909366 21.0134031,14.5124259 C21.2512489,15.6339151 20.7755571,19.3496315 20.7755571,19.3496315 C20.7755571,19.3496315 20.4914527,20.5451035 19.072165,20.9780905 C17.6528772,21.4110775 14.0757263,20.9780905 14.0757263,20.9780905 C14.0757263,20.9780905 9.38704899,20.253346 5.46509888,16.6055376 C1.54314877,12.9577293 0.509806575,9.04397498 0.509806575,9.04397498 C0.509806575,9.04397498 -0.325313479,4.00995864 0.142165567,2.16684683 C0.609644614,0.323735023 1.78132929,0.303887078 1.78132929,0.303887078 C1.78132929,0.303887078 6.66185621,-0.262322551 7.27620754,0.151009971 Z" id="Path-2"></path>
        </g>
    </g>
</svg>