<?xml version="1.0" encoding="UTF-8"?>
<svg width="20px" height="20px" viewBox="0 0 20 20" version="1.1" xmlns="http://www.w3.org/2000/svg" xmlns:xlink="http://www.w3.org/1999/xlink">
    <!-- Generator: Sketch 41.2 (35397) - http://www.bohemiancoding.com/sketch -->
    <title>ico/plane</title>
    <desc>Created with Sketch.</desc>
    <defs></defs>
    <g id="Symbols" stroke="none" stroke-width="1" fill="none" fill-rule="evenodd">
        <g id="ico/plane" fill="#70BAFF">
            <g id="Group-3" transform="translate(1.000000, 7.000000)">
                <path d="M5.99996204,4.9858306 C6.4961584,4.80072706 6.61278637,4.30618282 6.26141957,3.88239499 L4.95849541,2.31092211 C4.60669806,1.88661499 4.66407027,1.26556807 5.09763601,0.914880789 L4.38759701,1.48919196 C4.81623959,1.14248675 5.58631947,1.03699564 6.08186756,1.24287264 L10.1217034,2.92123504 C10.6287806,3.13190185 11.470351,3.15749815 11.9803512,2.98550568 L15.3600201,1.84574616 C15.8794457,1.67057505 16.7518526,1.55579212 17.3013818,1.58893623 L16.3005234,1.52857081 C17.6595272,1.61053728 17.7400572,2.55569815 16.8318862,3.3371842 L17.594409,2.68102921 C17.1732793,3.04341361 16.4078998,3.48077092 15.8909882,3.65582755 L6.95713049,6.68135665 C6.43748686,6.85733851 5.56835785,7 5.01815649,7 L3.36175611,7 C2.81053398,7 2.07012119,6.66297751 2,6.58247437 L2,6.58247437 C2,6.46488959 5.99996204,4.9858306 5.99996204,4.9858306 Z" id="Path-106"></path>
                <polygon id="Path-107" points="1.53303376 6 3 5.27985427 0.581491377 4 0 4.24193766"></polygon>
            </g>
        </g>
    </g>
</svg>