<?xml version="1.0" encoding="UTF-8"?>
<svg width="22px" height="22px" viewBox="0 0 22 22" version="1.1" xmlns="http://www.w3.org/2000/svg" xmlns:xlink="http://www.w3.org/1999/xlink">
    <!-- Generator: Sketch 41.2 (35397) - http://www.bohemiancoding.com/sketch -->
    <title>ico/porson</title>
    <desc>Created with Sketch.</desc>
    <defs></defs>
    <g id="Symbols" stroke="none" stroke-width="1" fill="none" fill-rule="evenodd">
        <g id="ico/porson" fill="#5C585D">
            <path d="M14.522474,13.2436382 L14.6009335,14.470752 C14.6083237,14.5863359 14.7283483,14.7270718 14.8410331,14.7524956 L18.6701965,15.6164273 C19.1195247,15.7178042 19.6661986,16.0781425 19.9370769,16.4518387 L21.8787548,19.1305237 C22.1221532,19.4663093 21.9822493,19.9074479 21.6093585,20.0285828 C21.5161553,20.0652241 21.3339031,20.123616 21.051182,20.1962721 C20.5923849,20.3141777 20.0103617,20.4313022 19.2936415,20.5401212 C17.261918,20.8485962 14.5544075,21.0331357 11.0792125,21.0331357 C7.60432291,21.0331357 4.86797854,20.8481434 2.78813702,20.5390023 C2.05507296,20.430042 1.45552462,20.312829 0.979255144,20.1949363 C0.686813819,20.1225472 0.497296623,20.0646239 0.424954309,20.0368963 C0.0233643347,19.9169555 -0.124140658,19.4717384 0.115664,19.1319874 L2.0018476,16.4596758 C2.26933962,16.0806978 2.81326337,15.7188955 3.26610832,15.6184881 L7.07870057,14.773138 C7.19323459,14.7477428 7.31858815,14.6038374 7.32828701,14.4857483 L7.44245504,13.0956884 C6.22397828,11.7535238 5.49425205,9.72765279 5.42361161,7.50387533 C5.29853708,3.56650041 7.48981391,1 11.0519653,1 C14.6141166,1 16.8053934,3.56650041 16.6803189,7.50387533 C16.6070319,9.8109676 15.8243481,11.9050463 14.522474,13.2436382 Z M8.16926287,13.7684295 C8.14784982,14.062661 8.13114445,14.3567971 8.12316597,14.5044484 C8.12072434,14.5341765 8.11936552,14.5507209 8.11936552,14.5507209 C8.08120038,15.0154029 7.7049884,15.447293 7.25052083,15.5480602 L3.43792857,16.3934103 C3.17784096,16.4510784 2.80389477,16.6998166 2.65032706,16.9173886 C2.65032706,16.9173886 0.927369218,19.3584451 0.927369225,19.3584448 C0.927369227,19.3584447 0.93721093,19.3615528 0.956179968,19.3671405 C0.936636259,19.3948297 0.926032545,19.4098528 0.926032546,19.4098528 C0.926032552,19.4098525 1.0131758,19.4373735 1.16864028,19.4758562 C1.61993485,19.5875668 2.19481596,19.6999573 2.90349762,19.8052935 C4.94292958,20.1084283 7.64053414,20.2908015 11.0778758,20.2908015 C14.5149121,20.2908015 17.1829468,20.1089527 19.1731571,19.8067806 C19.8641137,19.7018731 20.4200176,19.5900049 20.8522822,19.4789178 C20.9327223,19.4582456 21.0053613,19.4384821 21.0704266,19.4197815 C21.0747146,19.4185491 21.0675608,19.4026527 21.0507208,19.3743832 C21.057821,19.3723681 21.0648351,19.3703648 21.0717633,19.3683735 C21.1268378,19.3525444 19.2944129,16.9176816 19.2944129,16.9176816 C19.1368228,16.7002746 18.7565152,16.4495961 18.4955043,16.3907071 L14.6663409,15.5267755 C14.2100202,15.4238209 13.8386673,14.9883878 13.8088088,14.521399 L13.8041371,14.4483333 C13.7999656,14.3051761 13.7919563,14.0662697 13.7805364,13.8824809 C12.9974553,14.4395258 12.0785465,14.7581978 11.0519653,14.7581978 C9.95724304,14.7581978 8.98496152,14.395817 8.16926287,13.7684295 Z M15.8869769,7.47867406 C15.9988176,3.95790345 14.13308,1.79374218 11.0519653,1.79374218 C7.97085057,1.79374218 6.10511293,3.95790345 6.21695362,7.47867406 C6.33574256,11.2181772 8.36718081,13.9644556 11.0519653,13.9644556 C13.7367497,13.9644556 15.768188,11.2181772 15.8869769,7.47867406 Z" id="Combined-Shape"></path>
        </g>
    </g>
</svg>