<?xml version="1.0" encoding="UTF-8"?>
<svg width="16px" height="16px" viewBox="0 0 16 16" version="1.1" xmlns="http://www.w3.org/2000/svg" xmlns:xlink="http://www.w3.org/1999/xlink">
    <!-- Generator: Sketch 41.2 (35397) - http://www.bohemiancoding.com/sketch -->
    <title>ico/radiook</title>
    <desc>Created with Sketch.</desc>
    <defs></defs>
    <g id="Symbols" stroke="none" stroke-width="1" fill="none" fill-rule="evenodd">
        <g id="ico/radiook" fill="#D1DBDF">
            <path d="M8,15.3846154 C12.0784105,15.3846154 15.3846154,12.0784105 15.3846154,8 C15.3846154,3.92158954 12.0784105,0.615384615 8,0.615384615 C3.92158954,0.615384615 0.615384615,3.92158954 0.615384615,8 C0.615384615,12.0784105 3.92158954,15.3846154 8,15.3846154 Z M8,16 C3.581722,16 0,12.418278 0,8 C0,3.581722 3.581722,0 8,0 C12.418278,0 16,3.581722 16,8 C16,12.418278 12.418278,16 8,16 Z M4.53257379,7.16434877 L3.82094183,7.86690123 L7.59268664,11.6873906 L12.8807453,5.85236356 L12.1397625,5.18083957 L7.56161023,10.2325313 L4.53257379,7.16434877 Z" id="Combined-Shape"></path>
        </g>
    </g>
</svg>