<?xml version="1.0" encoding="UTF-8"?>
<svg width="14px" height="14px" viewBox="0 0 14 14" version="1.1" xmlns="http://www.w3.org/2000/svg" xmlns:xlink="http://www.w3.org/1999/xlink">
    <!-- Generator: Sketch 41.2 (35397) - http://www.bohemiancoding.com/sketch -->
    <title>ico/search</title>
    <desc>Created with Sketch.</desc>
    <defs></defs>
    <g id="Symbols" stroke="none" stroke-width="1" fill="none" fill-rule="evenodd">
        <g id="ico/search" fill="#7A797B">
            <path d="M8.00341407,8.99779951 C7.16716939,9.62704111 6.1271393,10 5,10 C2.23857625,10 0,7.76142375 0,5 C0,2.23857625 2.23857625,0 5,0 C7.76142375,0 10,2.23857625 10,5 C10,6.12746846 9.62682325,7.16777681 8.99724818,8.00414663 C9.07736566,8.04059384 9.15227305,8.09161288 9.21775156,8.15709139 L12.649991,11.5893308 C12.9448449,11.8841847 12.9484764,12.358606 12.6535412,12.6535412 C12.360648,12.9464344 11.8812716,12.9419317 11.5893308,12.649991 L8.15709139,9.21775156 C8.09136995,9.15203012 8.04011707,9.0773874 8.00341407,8.99779951 Z M5,9 C7.209139,9 9,7.209139 9,5 C9,2.790861 7.209139,1 5,1 C2.790861,1 1,2.790861 1,5 C1,7.209139 2.790861,9 5,9 Z" id="Search-Icon"></path>
        </g>
    </g>
</svg>