<svg xmlns="http://www.w3.org/2000/svg" width="16" height="16" viewBox="0 0 16 16">
  <g fill="#70BAFF" fill-rule="evenodd">
    <path d="M3.219476,3.21052632 L1.66324519,3.21052632 C1.2966037,3.21052632 1,3.50899127 1,3.87716645 L1,13.8772195 C1,14.2407204 1.29810257,14.5438596 1.66583073,14.5438596 L14.3341693,14.5438596 C14.7075901,14.5438596 15,14.2453947 15,13.8772195 L15,3.87716645 C15,3.51366561 14.7003602,3.21052632 14.3307359,3.21052632 L12.7901033,3.21052632 L12.7901033,3.71052632 L14.3307359,3.71052632 C14.4225038,3.71052632 14.5,3.78809255 14.5,3.87716645 L14.5,13.8772195 C14.5,13.9720283 14.4286795,14.0438596 14.3341693,14.0438596 L1.66583073,14.0438596 C1.57652863,14.0438596 1.5,13.9668669 1.5,13.8772195 L1.5,3.87716645 C1.5,3.78440572 1.57347704,3.71052632 1.66324519,3.71052632 L3.219476,3.71052632 L3.219476,3.21052632 Z"/>
    <rect width=".5" height="2.947" x="3.947" y="1"/>
    <rect width=".5" height="2.947" x="11.316" y="1"/>
    <rect width="5.158" height=".5" x="5.421" y="3.211"/>
    <rect width="8.105" height=".5" x="3.947" y="6.895"/>
    <rect width="8.105" height=".5" x="3.947" y="9.842"/>
  </g>
</svg>
