<svg xmlns="http://www.w3.org/2000/svg" width="18" height="18" viewBox="0 0 18 18">
  <path fill="#FB5164" fill-rule="evenodd" d="M9.61221852,16 L4.14424182,16 C2.95707641,16 2,15.0439022 2,13.8528298 L2,4.1471702 C2,2.9582607 2.95622192,2 4.1471702,2 L13.8528298,2 C15.0417393,2 16,2.95622192 16,4.1471702 L16,13.8528298 C16,15.0351179 15.035358,16 13.8606653,16 L12.9200846,16 C12.6439423,16 12.4200846,16.2238576 12.4200846,16.5 C12.4200846,16.7761424 12.6439423,17 12.9200846,17 L13.8606653,17 C15.5876985,17 17,15.5873469 17,13.8528298 L17,4.1471702 C17,2.40345983 15.5935478,1 13.8528298,1 L4.1471702,1 C2.40345983,1 1,2.40645217 1,4.1471702 L1,13.8528298 C1,15.5964161 2.40502054,17 4.14424182,17 L9.61221852,17 C9.8883609,17 10.1122185,16.7761424 10.1122185,16.5 C10.1122185,16.2238576 9.8883609,16 9.61221852,16 Z M6,6.50693512 C6,5.67467783 6.67274831,5 7.49515124,5 L10.6813193,5 C11.5070686,5 12.1764706,5.6716456 12.1764706,6.50693512 L12.1764706,11.2136531 C12.1764706,12.0459104 11.5812458,12.4228668 10.8314021,12.0478076 L9.08936624,11.1764706 L7.34605399,12.0478076 C6.6026489,12.4193741 6,12.0489426 6,11.2136531 L6,6.50693512 Z M9.08953001,10.0584366 L11.1764706,11.1022891 L11.1764706,6.50693512 C11.1764706,6.22353675 10.9543732,6 10.6813193,6 L7.49515124,6 C7.22529383,6 7,6.22671897 7,6.50693512 L7,11.1028191 L9.08953001,10.0584366 Z"/>
</svg>
