<svg xmlns="http://www.w3.org/2000/svg" width="18" height="18" viewBox="0 0 18 18">
  <path fill="#FF7C00" fill-rule="evenodd" d="M6.23197033,6.92181877 C4.05437048,8.14782761 2.5,10.7068933 2.5,13.099094 C2.5,16.0813907 4.51762528,16.9414779 9,16.9414779 C13.4823747,16.9414779 15.5,16.0813907 15.5,13.099094 C15.5,10.7082213 13.9464166,8.14804522 11.7680596,6.92178435 C12.313304,6.29468757 12.6428571,5.47994376 12.6428571,4.58866995 C12.6428571,2.60473712 11.0099667,1 9,1 C6.99003326,1 5.35714286,2.60473712 5.35714286,4.58866995 C5.35714286,5.47996007 5.68670802,6.29471738 6.23197033,6.92181877 Z M10.9470506,7.62222957 C12.9808565,8.58322456 14.5,10.9545477 14.5,13.099094 C14.5,15.2959658 12.9857332,15.9414779 9,15.9414779 C5.0142668,15.9414779 3.5,15.2959658 3.5,13.099094 C3.5,10.9529513 5.02026559,8.58292855 7.05295869,7.62223535 C7.61635765,7.97385984 8.28427226,8.1773399 9,8.1773399 C9.71573167,8.1773399 10.3836497,7.97385761 10.9470506,7.62222957 Z M9,7.1773399 C7.5384626,7.1773399 6.35714286,6.01638774 6.35714286,4.58866995 C6.35714286,3.16095216 7.5384626,2 9,2 C10.4615374,2 11.6428571,3.16095216 11.6428571,4.58866995 C11.6428571,6.01638774 10.4615374,7.1773399 9,7.1773399 Z"/>
</svg>
