<?xml version="1.0" encoding="UTF-8"?>
<svg width="22px" height="22px" viewBox="0 0 22 22" version="1.1" xmlns="http://www.w3.org/2000/svg" xmlns:xlink="http://www.w3.org/1999/xlink">
    <!-- Generator: Sketch 41.2 (35397) - http://www.bohemiancoding.com/sketch -->
    <title>ico/xc</title>
    <desc>Created with Sketch.</desc>
    <defs></defs>
    <g id="Symbols" stroke="none" stroke-width="1" fill="none" fill-rule="evenodd">
        <g id="ico/xc" fill="#5C585D">
            <path d="M1.9891892,16.3830468 C1.9891892,16.9540966 2.44949755,17.4135135 3.02061452,17.4135135 L18.892899,17.4135135 C19.4686951,17.4135135 19.9243243,16.956251 19.9243243,16.3830468 L19.9243243,5.61695315 C19.9243243,5.04590337 19.464016,4.58648649 18.892899,4.58648649 L3.02061452,4.58648649 C2.44481839,4.58648649 1.9891892,5.04374895 1.9891892,5.61695315 L1.9891892,16.3830468 Z M3.02061452,3.90540541 L18.892899,3.90540541 C19.8386902,3.90540541 20.6054054,4.66827784 20.6054054,5.61695315 L20.6054054,16.3830468 C20.6054054,17.3283086 19.8489285,18.0945946 18.892899,18.0945946 L3.02061452,18.0945946 C2.07482335,18.0945946 1.30810811,17.3317222 1.30810811,16.3830468 L1.30810811,5.61695315 C1.30810811,4.67169143 2.06458504,3.90540541 3.02061452,3.90540541 Z M21.4512624,21.0459459 C21.6393378,21.0459459 21.791803,20.8934808 21.791803,20.7054054 C21.791803,20.5173301 21.6393378,20.3648649 21.4512624,20.3648649 L0.740540547,20.3648649 C0.552465199,20.3648649 0.400000006,20.5173301 0.400000006,20.7054054 C0.400000006,20.8934808 0.552465199,21.0459459 0.740540547,21.0459459 L21.4512624,21.0459459 Z M13.7945946,3.90264351 L13.7945946,1.63469307 C13.7945946,1.00672193 13.2864751,0.5 12.659678,0.5 L9.25383554,0.5 C8.62259728,0.5 8.11891892,1.00934768 8.11891892,1.63765988 L8.11891892,3.90146461 L8.80000001,3.90146461 L8.80000001,1.63765988 C8.80000001,1.38317812 9.00106477,1.18108108 9.25383554,1.18108108 L12.659678,1.18108108 C12.9109234,1.18108108 13.1135135,1.38347131 13.1135135,1.63469307 L13.1135135,3.90250204 L13.7945946,3.90264351 Z M16.0648649,17.4135135 L16.745946,17.4135135 L16.745946,4.58648649 L16.0648649,4.58648649 L16.0648649,17.4135135 Z M5.28108109,17.3387504 L5.96216217,17.3387504 L5.96216217,4.5948838 L5.28108109,4.5948838 L5.28108109,17.3387504 Z" id="Combined-Shape"></path>
        </g>
    </g>
</svg>